# xmcd CD database file
#
# Track frame offsets:
#	150
#	26073
#	50528
#	78010
#	104943
#	131058
#	151595
#	205133
#	230255
#	255255
#	276465
#
# Disc length: 3989 seconds
#
# Revision: 0
# Processed by: cddbd v1.5.2PL0 Copyright (c) Steve Scherf et al.
# Submitted via: CDex 1.70beta3
#
DISCID=8f0f930b
DTITLE=Kondo Toshinori IMA - God.Zilla Funk
DYEAR=1991
DGENRE=Jazz
TTITLE0=Last Lost
TTITLE1=Banana Plantation
TTITLE2=北方
TTITLE3=Tokyo Girl (Lots of) Chemical Mix
TTITLE4=Yami
TTITLE5=96
TTITLE6=Y.U
TTITLE7=Fi Republic
TTITLE8=Timeless Man
TTITLE9=Misora
TTITLE10=No More Border Line
EXTD=YEAR: 1991
EXTT0=
EXTT1=
EXTT2=
EXTT3=
EXTT4=
EXTT5=
EXTT6=
EXTT7=
EXTT8=
EXTT9=
EXTT10=
PLAYORDER=
